<svg xmlns="http://www.w3.org/2000/svg" xmlns:xlink="http://www.w3.org/1999/xlink" width="1600" height="640" viewBox="0 0 1200 480"><path d="M0 0h1200v480H0z" fill="#f9f8f2"/><path d="M0 0h1200v480H0z" fill="#b6c2f5"/><mask id="n"><g clip-path="url(#a)" stroke-width="0" stroke-linejoin="round" fill="none" stroke="#fff"><use xlink:href="#b" transform="scale(41.48236 -41.48236) rotate(85.28 8.121 .207)"/><use xlink:href="#c" transform="scale(41.48236 -41.48236) rotate(75.79 8.135 1.716)"/><use xlink:href="#d" transform="scale(41.48239 -41.48239) rotate(67.171 8.323 3.187)"/><use xlink:href="#e" transform="scale(41.4824 -41.4824) rotate(59.59 8.362 5.049)"/><use xlink:href="#f" transform="scale(41.48237 -41.48237) rotate(52.588 8.623 6.878)"/><use xlink:href="#g" transform="scale(41.48236 -41.48236) rotate(44.426 8.873 9.812)"/><use xlink:href="#h" transform="scale(41.48238 -41.48238) rotate(36.37 9.215 14.037)"/><use xlink:href="#b" transform="scale(41.48237 -41.48237) rotate(22.454 10.54 27.454)"/><use xlink:href="#g" transform="scale(41.48236 -41.48236) rotate(12.712 12.868 55.359)"/><use xlink:href="#i" transform="scale(41.48237 -41.48237) rotate(3.873 25.51 198.471)"/><use xlink:href="#g" transform="matrix(41.34474 3.3763 3.3763 -41.34474 601.88 50.428)"/><use xlink:href="#j" transform="scale(41.48238 -41.48238) rotate(-13.189 2 -67.525)"/><use xlink:href="#c" transform="scale(41.4824 -41.4824) rotate(-21.432 4.117 -44.269)"/><use xlink:href="#b" transform="scale(41.48238 -41.48238) rotate(-31.147 5.265 -31.995)"/><use xlink:href="#c" transform="scale(41.48237 -41.48237) rotate(-40.535 5.69 -26.236)"/><use xlink:href="#i" transform="scale(41.48237 -41.48237) rotate(-49.039 6.045 -22.541)"/><use xlink:href="#k" transform="scale(41.48238 -41.48238) rotate(-57.712 6.257 -19.952)"/><use xlink:href="#l" transform="scale(41.48237 -41.48237) rotate(-69.838 6.459 -17.31)"/><use xlink:href="#m" transform="scale(41.48236 -41.48236) rotate(-78.109 6.61 -15.891)"/><use xlink:href="#l" transform="scale(41.48238 -41.48238) rotate(-85.971 6.685 -14.786)"/></g>&quot;/&gt;</mask><clipPath id="a"><path transform="translate(287.898 19.763)" d="M0 0h1200v480H0z"/></clipPath><symbol id="b"><path d="M.701 0v.181C.73.181.75.185.757.192.767.2.771.215.771.236v.28L.604 0H.416l-.17.489V.23C.246.22.247.21.25.204A.028.028 0 01.259.19.046.046 0 01.281.183.351.351 0 01.316.18V0H0v.181c.029 0 .05.004.062.011C.074.2.08.215.08.236v.247C.08.504.074.519.062.526A.12.12 0 010 .538V.72h.465L.577.382l.098.337h.459V.54a.12.12 0 01-.062-.013C1.06.52 1.054.504 1.054.483V.236c0-.021.006-.036.018-.044a.125.125 0 01.062-.01V0H.7z"/></symbol><symbol id="c"><path d="M.456.181C.47.181.48.182.49.185a.04.04 0 01.022.012C.516.204.52.213.522.224a.252.252 0 01.003.042h.17V0H0v.181c.029 0 .05.004.062.011C.074.2.08.215.08.236v.247C.08.504.074.519.062.526A.12.12 0 010 .538V.72h.696V.453H.525a.252.252 0 01-.003.043.051.051 0 01-.011.025.04.04 0 01-.022.013.119.119 0 01-.033.004H.368v-.13h.156V.322H.368v-.14h.088z"/></symbol><symbol id="d"><path d="M.414.182c.018 0 .035.002.052.006a.092.092 0 01.045.024c.013.013.024.03.032.054A.295.295 0 01.555.36c0 .039-.004.07-.012.093a.136.136 0 01-.03.055.088.088 0 01-.045.025.225.225 0 01-.054.006H.368V.182h.046M0 .001v.181c.029 0 .05.004.062.011C.074.201.08.216.08.237v.247C.08.505.074.52.062.527A.12.12 0 010 .54V.72h.518A.493.493 0 00.653.702.296.296 0 00.851.53.41.41 0 00.884.36a.416.416 0 00-.03-.17.285.285 0 00-.084-.11.325.325 0 00-.123-.061A.584.584 0 00.497 0L0 .001z"/></symbol><symbol id="e"><path d="M0 0v.181c.029 0 .05.004.062.011C.074.2.08.215.08.236v.247C.08.504.074.519.062.526A.12.12 0 010 .538V.72h.448V.54A.12.12 0 01.386.525C.374.52.368.504.368.483V.236C.368.215.374.2.386.192a.125.125 0 01.062-.01V0H0z"/></symbol><symbol id="f"><path d="M.365.76A.328.328 0 00.547.705V.74h.161V.474h-.17c0 .022-.004.04-.01.055a.094.094 0 01-.02.035.075.075 0 01-.032.02.126.126 0 01-.039.006.101.101 0 01-.05-.011.082.082 0 01-.033-.036.223.223 0 01-.02-.064A.65.65 0 01.335.28.207.207 0 01.356.216.09.09 0 01.394.181.123.123 0 01.488.178a.094.094 0 01.034.025c.01.01.018.025.023.041a.181.181 0 01.01.06h.17a.349.349 0 00-.02-.117A.256.256 0 00.644.09.296.296 0 00.538.024.514.514 0 00.236.021.333.333 0 00.113.09.323.323 0 00.03.207.448.448 0 000 .38c0 .067.01.125.03.173A.325.325 0 00.23.739a.432.432 0 00.136.02z"/></symbol><symbol id="g"><path d="M.4.251H.244L.238.23C.233.216.233.204.24.195.245.185.257.18.276.18h.028V0H0v.181h.02c.023 0 .04.005.047.014.008.01.016.023.023.04l.1.248C.198.502.2.516.194.524.189.534.175.538.15.538h-.01V.72h.502V.54h-.01C.61.538.595.532.59.523.585.514.587.5.594.483l.1-.247.01-.024A.072.072 0 01.717.195a.042.042 0 01.018-.01.109.109 0 01.03-.004h.02V0H.34v.181h.027c.019 0 .031.005.037.014.007.01.007.021.002.035L.4.251M.27.327h.104l-.049.15H.321L.27.327z"/></symbol><symbol id="h"><path d="M.448.538A.12.12 0 01.386.526C.374.52.368.504.368.483V.18h.098C.479.181.49.182.5.185.509.188.516.193.52.201a.09.09 0 01.01.035.413.413 0 01.004.06h.171V0H0v.181c.029 0 .05.004.062.011C.074.2.08.215.08.236v.247C.08.504.074.519.062.526A.12.12 0 010 .538V.72h.448V.54z"/></symbol><symbol id="i"><path d="M.874.72V.537C.845.538.826.533.817.524.81.514.804.5.804.483V0H.511L.256.399V.23c0-.021.006-.035.018-.04A.163.163 0 01.336.18V0H0v.181c.029 0 .05.004.062.011C.074.2.08.215.08.236v.247C.08.504.074.519.062.526A.12.12 0 010 .538V.72h.384L.628.337v.146c0 .021-.005.036-.014.043C.605.534.587.538.558.538V.72h.316z"/></symbol><symbol id="j"><path d="M.61.021L.596.07A.273.273 0 00.51.02.34.34 0 00.386 0a.509.509 0 00-.15.021.333.333 0 00-.123.068.323.323 0 00-.083.118A.448.448 0 000 .38c0 .067.01.125.032.173a.34.34 0 00.206.185.446.446 0 00.21.015A.33.33 0 00.578.7v.04h.16V.474h-.17a.126.126 0 01-.031.084.102.102 0 01-.08.032.125.125 0 01-.05-.01.095.095 0 01-.04-.033.185.185 0 01-.029-.065A.648.648 0 01.334.28a.209.209 0 01.02-.064A.09.09 0 01.39.181.115.115 0 01.46.17a.095.095 0 01.02.005.059.059 0 01.017.01.02.02 0 01.007.016V.23c0 .015-.005.027-.016.035C.477.272.457.276.43.276v.161H.84V.276A.12.12 0 01.779.264C.767.257.761.242.761.221v-.2H.61z"/></symbol><symbol id="k"><path d="M.788.72V.432h-.16c0 .022-.001.04-.003.057a.128.128 0 01-.007.039A.041.041 0 01.6.55a.06.06 0 01-.032.007h-.03V.236C.538.215.544.2.557.192a.125.125 0 01.061-.01V0H.17v.181c.03 0 .05.004.061.011C.244.2.25.215.25.236v.322H.22A.062.062 0 01.188.551.044.044 0 01.17.529a.128.128 0 01-.007-.04A.943.943 0 01.16.434H0V.72h.788z"/></symbol><symbol id="l"><path d="M.661.471H.5a.143.143 0 01-.094.107.142.142 0 01-.05.01.094.094 0 01-.049-.012.037.037 0 01-.019-.033C.288.53.294.519.305.51A.17.17 0 01.35.49.861.861 0 01.414.472a.808.808 0 00.145-.05.235.235 0 00.063-.045.204.204 0 00.045-.066.233.233 0 00.017-.094.188.188 0 00-.092-.166.305.305 0 00-.096-.039.518.518 0 00-.223.001.453.453 0 00-.106.043V.013H.006V.28h.161A.16.16 0 01.224.19.153.153 0 01.319.156c.024 0 .042.005.054.013C.384.18.39.19.39.2.39.218.38.232.36.242a.362.362 0 01-.07.026L.194.293A.369.369 0 00.1.335.241.241 0 00.03.407.21.21 0 000 .523a.19.19 0 00.023.094c.015.028.036.05.061.069a.274.274 0 00.09.043A.434.434 0 00.5.687L.499.732h.161v-.26z"/></symbol><symbol id="m"><path d="M.09.483a.259.259 0 00-.019.02.098.098 0 01-.017.018.068.068 0 01-.021.012A.092.092 0 010 .538V.72h.43V.54C.4.538.381.532.371.523.363.514.363.503.373.489L.44.395h.004l.067.094C.523.5.524.513.515.523c-.01.01-.029.015-.06.015V.72H.75V.54A.103.103 0 01.723.534a.066.066 0 01-.02-.01A4.012 4.012 0 01.66.483L.518.31V.236C.519.215.525.2.538.192a.125.125 0 01.061-.01V0H.151v.181c.029 0 .05.004.062.011C.225.2.23.215.23.236V.31l-.14.172z"/></symbol><g mask="url(#n)"><use xlink:href="#b" stroke-width=".07" stroke-linejoin="round" transform="scale(41.48236 -41.48236) rotate(85.28 8.121 .207)" fill="none" stroke="#fff"/></g><mask id="p"><g clip-path="url(#o)" stroke-width="0" stroke-linejoin="round" fill="none" stroke="#fff"><use xlink:href="#b" transform="scale(41.48236 -41.48236) rotate(85.28 8.121 .207)"/><use xlink:href="#c" transform="scale(41.48236 -41.48236) rotate(75.79 8.135 1.716)"/><use xlink:href="#d" transform="scale(41.48239 -41.48239) rotate(67.171 8.323 3.187)"/><use xlink:href="#e" transform="scale(41.4824 -41.4824) rotate(59.59 8.362 5.049)"/><use xlink:href="#f" transform="scale(41.48237 -41.48237) rotate(52.588 8.623 6.878)"/><use xlink:href="#g" transform="scale(41.48236 -41.48236) rotate(44.426 8.873 9.812)"/><use xlink:href="#h" transform="scale(41.48238 -41.48238) rotate(36.37 9.215 14.037)"/><use xlink:href="#b" transform="scale(41.48237 -41.48237) rotate(22.454 10.54 27.454)"/><use xlink:href="#g" transform="scale(41.48236 -41.48236) rotate(12.712 12.868 55.359)"/><use xlink:href="#i" transform="scale(41.48237 -41.48237) rotate(3.873 25.51 198.471)"/><use xlink:href="#g" transform="matrix(41.34474 3.3763 3.3763 -41.34474 601.88 50.428)"/><use xlink:href="#j" transform="scale(41.48238 -41.48238) rotate(-13.189 2 -67.525)"/><use xlink:href="#c" transform="scale(41.4824 -41.4824) rotate(-21.432 4.117 -44.269)"/><use xlink:href="#b" transform="scale(41.48238 -41.48238) rotate(-31.147 5.265 -31.995)"/><use xlink:href="#c" transform="scale(41.48237 -41.48237) rotate(-40.535 5.69 -26.236)"/><use xlink:href="#i" transform="scale(41.48237 -41.48237) rotate(-49.039 6.045 -22.541)"/><use xlink:href="#k" transform="scale(41.48238 -41.48238) rotate(-57.712 6.257 -19.952)"/><use xlink:href="#l" transform="scale(41.48237 -41.48237) rotate(-69.838 6.459 -17.31)"/><use xlink:href="#m" transform="scale(41.48236 -41.48236) rotate(-78.109 6.61 -15.891)"/><use xlink:href="#l" transform="scale(41.48238 -41.48238) rotate(-85.971 6.685 -14.786)"/></g>&quot;/&gt;</mask><clipPath id="o"><path transform="translate(287.898 19.763)" d="M0 0h1200v480H0z"/></clipPath><g mask="url(#p)"><use xlink:href="#c" stroke-width=".07" stroke-linejoin="round" transform="scale(41.48236 -41.48236) rotate(75.79 8.135 1.716)" fill="none" stroke="#fff"/></g><mask id="r"><g clip-path="url(#q)" stroke-width="0" stroke-linejoin="round" fill="none" stroke="#fff"><use xlink:href="#b" transform="scale(41.48236 -41.48236) rotate(85.28 8.121 .207)"/><use xlink:href="#c" transform="scale(41.48236 -41.48236) rotate(75.79 8.135 1.716)"/><use xlink:href="#d" transform="scale(41.48239 -41.48239) rotate(67.171 8.323 3.187)"/><use xlink:href="#e" transform="scale(41.4824 -41.4824) rotate(59.59 8.362 5.049)"/><use xlink:href="#f" transform="scale(41.48237 -41.48237) rotate(52.588 8.623 6.878)"/><use xlink:href="#g" transform="scale(41.48236 -41.48236) rotate(44.426 8.873 9.812)"/><use xlink:href="#h" transform="scale(41.48238 -41.48238) rotate(36.37 9.215 14.037)"/><use xlink:href="#b" transform="scale(41.48237 -41.48237) rotate(22.454 10.54 27.454)"/><use xlink:href="#g" transform="scale(41.48236 -41.48236) rotate(12.712 12.868 55.359)"/><use xlink:href="#i" transform="scale(41.48237 -41.48237) rotate(3.873 25.51 198.471)"/><use xlink:href="#g" transform="matrix(41.34474 3.3763 3.3763 -41.34474 601.88 50.428)"/><use xlink:href="#j" transform="scale(41.48238 -41.48238) rotate(-13.189 2 -67.525)"/><use xlink:href="#c" transform="scale(41.4824 -41.4824) rotate(-21.432 4.117 -44.269)"/><use xlink:href="#b" transform="scale(41.48238 -41.48238) rotate(-31.147 5.265 -31.995)"/><use xlink:href="#c" transform="scale(41.48237 -41.48237) rotate(-40.535 5.69 -26.236)"/><use xlink:href="#i" transform="scale(41.48237 -41.48237) rotate(-49.039 6.045 -22.541)"/><use xlink:href="#k" transform="scale(41.48238 -41.48238) rotate(-57.712 6.257 -19.952)"/><use xlink:href="#l" transform="scale(41.48237 -41.48237) rotate(-69.838 6.459 -17.31)"/><use xlink:href="#m" transform="scale(41.48236 -41.48236) rotate(-78.109 6.61 -15.891)"/><use xlink:href="#l" transform="scale(41.48238 -41.48238) rotate(-85.971 6.685 -14.786)"/></g>&quot;/&gt;</mask><clipPath id="q"><path transform="translate(287.898 19.763)" d="M0 0h1200v480H0z"/></clipPath><g mask="url(#r)"><use xlink:href="#d" stroke-width=".07" stroke-linejoin="round" transform="scale(41.48239 -41.48239) rotate(67.171 8.323 3.187)" fill="none" stroke="#fff"/></g><mask id="t"><g clip-path="url(#s)" stroke-width="0" stroke-linejoin="round" fill="none" stroke="#fff"><use xlink:href="#b" transform="scale(41.48236 -41.48236) rotate(85.28 8.121 .207)"/><use xlink:href="#c" transform="scale(41.48236 -41.48236) rotate(75.79 8.135 1.716)"/><use xlink:href="#d" transform="scale(41.48239 -41.48239) rotate(67.171 8.323 3.187)"/><use xlink:href="#e" transform="scale(41.4824 -41.4824) rotate(59.59 8.362 5.049)"/><use xlink:href="#f" transform="scale(41.48237 -41.48237) rotate(52.588 8.623 6.878)"/><use xlink:href="#g" transform="scale(41.48236 -41.48236) rotate(44.426 8.873 9.812)"/><use xlink:href="#h" transform="scale(41.48238 -41.48238) rotate(36.37 9.215 14.037)"/><use xlink:href="#b" transform="scale(41.48237 -41.48237) rotate(22.454 10.54 27.454)"/><use xlink:href="#g" transform="scale(41.48236 -41.48236) rotate(12.712 12.868 55.359)"/><use xlink:href="#i" transform="scale(41.48237 -41.48237) rotate(3.873 25.51 198.471)"/><use xlink:href="#g" transform="matrix(41.34474 3.3763 3.3763 -41.34474 601.88 50.428)"/><use xlink:href="#j" transform="scale(41.48238 -41.48238) rotate(-13.189 2 -67.525)"/><use xlink:href="#c" transform="scale(41.4824 -41.4824) rotate(-21.432 4.117 -44.269)"/><use xlink:href="#b" transform="scale(41.48238 -41.48238) rotate(-31.147 5.265 -31.995)"/><use xlink:href="#c" transform="scale(41.48237 -41.48237) rotate(-40.535 5.69 -26.236)"/><use xlink:href="#i" transform="scale(41.48237 -41.48237) rotate(-49.039 6.045 -22.541)"/><use xlink:href="#k" transform="scale(41.48238 -41.48238) rotate(-57.712 6.257 -19.952)"/><use xlink:href="#l" transform="scale(41.48237 -41.48237) rotate(-69.838 6.459 -17.31)"/><use xlink:href="#m" transform="scale(41.48236 -41.48236) rotate(-78.109 6.61 -15.891)"/><use xlink:href="#l" transform="scale(41.48238 -41.48238) rotate(-85.971 6.685 -14.786)"/></g>&quot;/&gt;</mask><clipPath id="s"><path transform="translate(287.898 19.763)" d="M0 0h1200v480H0z"/></clipPath><g mask="url(#t)"><use xlink:href="#e" stroke-width=".07" stroke-linejoin="round" transform="scale(41.4824 -41.4824) rotate(59.59 8.362 5.049)" fill="none" stroke="#fff"/></g><mask id="v"><g clip-path="url(#u)" stroke-width="0" stroke-linejoin="round" fill="none" stroke="#fff"><use xlink:href="#b" transform="scale(41.48236 -41.48236) rotate(85.28 8.121 .207)"/><use xlink:href="#c" transform="scale(41.48236 -41.48236) rotate(75.79 8.135 1.716)"/><use xlink:href="#d" transform="scale(41.48239 -41.48239) rotate(67.171 8.323 3.187)"/><use xlink:href="#e" transform="scale(41.4824 -41.4824) rotate(59.59 8.362 5.049)"/><use xlink:href="#f" transform="scale(41.48237 -41.48237) rotate(52.588 8.623 6.878)"/><use xlink:href="#g" transform="scale(41.48236 -41.48236) rotate(44.426 8.873 9.812)"/><use xlink:href="#h" transform="scale(41.48238 -41.48238) rotate(36.37 9.215 14.037)"/><use xlink:href="#b" transform="scale(41.48237 -41.48237) rotate(22.454 10.54 27.454)"/><use xlink:href="#g" transform="scale(41.48236 -41.48236) rotate(12.712 12.868 55.359)"/><use xlink:href="#i" transform="scale(41.48237 -41.48237) rotate(3.873 25.51 198.471)"/><use xlink:href="#g" transform="matrix(41.34474 3.3763 3.3763 -41.34474 601.88 50.428)"/><use xlink:href="#j" transform="scale(41.48238 -41.48238) rotate(-13.189 2 -67.525)"/><use xlink:href="#c" transform="scale(41.4824 -41.4824) rotate(-21.432 4.117 -44.269)"/><use xlink:href="#b" transform="scale(41.48238 -41.48238) rotate(-31.147 5.265 -31.995)"/><use xlink:href="#c" transform="scale(41.48237 -41.48237) rotate(-40.535 5.69 -26.236)"/><use xlink:href="#i" transform="scale(41.48237 -41.48237) rotate(-49.039 6.045 -22.541)"/><use xlink:href="#k" transform="scale(41.48238 -41.48238) rotate(-57.712 6.257 -19.952)"/><use xlink:href="#l" transform="scale(41.48237 -41.48237) rotate(-69.838 6.459 -17.31)"/><use xlink:href="#m" transform="scale(41.48236 -41.48236) rotate(-78.109 6.61 -15.891)"/><use xlink:href="#l" transform="scale(41.48238 -41.48238) rotate(-85.971 6.685 -14.786)"/></g>&quot;/&gt;</mask><clipPath id="u"><path transform="translate(287.898 19.763)" d="M0 0h1200v480H0z"/></clipPath><g mask="url(#v)"><use xlink:href="#f" stroke-width=".07" stroke-linejoin="round" transform="scale(41.48237 -41.48237) rotate(52.588 8.623 6.878)" fill="none" stroke="#fff"/></g><mask id="x"><g clip-path="url(#w)" stroke-width="0" stroke-linejoin="round" fill="none" stroke="#fff"><use xlink:href="#b" transform="scale(41.48236 -41.48236) rotate(85.28 8.121 .207)"/><use xlink:href="#c" transform="scale(41.48236 -41.48236) rotate(75.79 8.135 1.716)"/><use xlink:href="#d" transform="scale(41.48239 -41.48239) rotate(67.171 8.323 3.187)"/><use xlink:href="#e" transform="scale(41.4824 -41.4824) rotate(59.59 8.362 5.049)"/><use xlink:href="#f" transform="scale(41.48237 -41.48237) rotate(52.588 8.623 6.878)"/><use xlink:href="#g" transform="scale(41.48236 -41.48236) rotate(44.426 8.873 9.812)"/><use xlink:href="#h" transform="scale(41.48238 -41.48238) rotate(36.37 9.215 14.037)"/><use xlink:href="#b" transform="scale(41.48237 -41.48237) rotate(22.454 10.54 27.454)"/><use xlink:href="#g" transform="scale(41.48236 -41.48236) rotate(12.712 12.868 55.359)"/><use xlink:href="#i" transform="scale(41.48237 -41.48237) rotate(3.873 25.51 198.471)"/><use xlink:href="#g" transform="matrix(41.34474 3.3763 3.3763 -41.34474 601.88 50.428)"/><use xlink:href="#j" transform="scale(41.48238 -41.48238) rotate(-13.189 2 -67.525)"/><use xlink:href="#c" transform="scale(41.4824 -41.4824) rotate(-21.432 4.117 -44.269)"/><use xlink:href="#b" transform="scale(41.48238 -41.48238) rotate(-31.147 5.265 -31.995)"/><use xlink:href="#c" transform="scale(41.48237 -41.48237) rotate(-40.535 5.69 -26.236)"/><use xlink:href="#i" transform="scale(41.48237 -41.48237) rotate(-49.039 6.045 -22.541)"/><use xlink:href="#k" transform="scale(41.48238 -41.48238) rotate(-57.712 6.257 -19.952)"/><use xlink:href="#l" transform="scale(41.48237 -41.48237) rotate(-69.838 6.459 -17.31)"/><use xlink:href="#m" transform="scale(41.48236 -41.48236) rotate(-78.109 6.61 -15.891)"/><use xlink:href="#l" transform="scale(41.48238 -41.48238) rotate(-85.971 6.685 -14.786)"/></g>&quot;/&gt;</mask><clipPath id="w"><path transform="translate(287.898 19.763)" d="M0 0h1200v480H0z"/></clipPath><g mask="url(#x)"><use xlink:href="#g" stroke-width=".07" stroke-linejoin="round" transform="scale(41.48236 -41.48236) rotate(44.426 8.873 9.812)" fill="none" stroke="#fff"/></g><mask id="z"><g clip-path="url(#y)" stroke-width="0" stroke-linejoin="round" fill="none" stroke="#fff"><use xlink:href="#b" transform="scale(41.48236 -41.48236) rotate(85.28 8.121 .207)"/><use xlink:href="#c" transform="scale(41.48236 -41.48236) rotate(75.79 8.135 1.716)"/><use xlink:href="#d" transform="scale(41.48239 -41.48239) rotate(67.171 8.323 3.187)"/><use xlink:href="#e" transform="scale(41.4824 -41.4824) rotate(59.59 8.362 5.049)"/><use xlink:href="#f" transform="scale(41.48237 -41.48237) rotate(52.588 8.623 6.878)"/><use xlink:href="#g" transform="scale(41.48236 -41.48236) rotate(44.426 8.873 9.812)"/><use xlink:href="#h" transform="scale(41.48238 -41.48238) rotate(36.37 9.215 14.037)"/><use xlink:href="#b" transform="scale(41.48237 -41.48237) rotate(22.454 10.54 27.454)"/><use xlink:href="#g" transform="scale(41.48236 -41.48236) rotate(12.712 12.868 55.359)"/><use xlink:href="#i" transform="scale(41.48237 -41.48237) rotate(3.873 25.51 198.471)"/><use xlink:href="#g" transform="matrix(41.34474 3.3763 3.3763 -41.34474 601.88 50.428)"/><use xlink:href="#j" transform="scale(41.48238 -41.48238) rotate(-13.189 2 -67.525)"/><use xlink:href="#c" transform="scale(41.4824 -41.4824) rotate(-21.432 4.117 -44.269)"/><use xlink:href="#b" transform="scale(41.48238 -41.48238) rotate(-31.147 5.265 -31.995)"/><use xlink:href="#c" transform="scale(41.48237 -41.48237) rotate(-40.535 5.69 -26.236)"/><use xlink:href="#i" transform="scale(41.48237 -41.48237) rotate(-49.039 6.045 -22.541)"/><use xlink:href="#k" transform="scale(41.48238 -41.48238) rotate(-57.712 6.257 -19.952)"/><use xlink:href="#l" transform="scale(41.48237 -41.48237) rotate(-69.838 6.459 -17.31)"/><use xlink:href="#m" transform="scale(41.48236 -41.48236) rotate(-78.109 6.61 -15.891)"/><use xlink:href="#l" transform="scale(41.48238 -41.48238) rotate(-85.971 6.685 -14.786)"/></g>&quot;/&gt;</mask><clipPath id="y"><path transform="translate(287.898 19.763)" d="M0 0h1200v480H0z"/></clipPath><g mask="url(#z)"><use xlink:href="#h" stroke-width=".07" stroke-linejoin="round" transform="scale(41.48238 -41.48238) rotate(36.37 9.215 14.037)" fill="none" stroke="#fff"/></g><mask id="B"><g clip-path="url(#A)" stroke-width="0" stroke-linejoin="round" fill="none" stroke="#fff"><use xlink:href="#b" transform="scale(41.48236 -41.48236) rotate(85.28 8.121 .207)"/><use xlink:href="#c" transform="scale(41.48236 -41.48236) rotate(75.79 8.135 1.716)"/><use xlink:href="#d" transform="scale(41.48239 -41.48239) rotate(67.171 8.323 3.187)"/><use xlink:href="#e" transform="scale(41.4824 -41.4824) rotate(59.59 8.362 5.049)"/><use xlink:href="#f" transform="scale(41.48237 -41.48237) rotate(52.588 8.623 6.878)"/><use xlink:href="#g" transform="scale(41.48236 -41.48236) rotate(44.426 8.873 9.812)"/><use xlink:href="#h" transform="scale(41.48238 -41.48238) rotate(36.37 9.215 14.037)"/><use xlink:href="#b" transform="scale(41.48237 -41.48237) rotate(22.454 10.54 27.454)"/><use xlink:href="#g" transform="scale(41.48236 -41.48236) rotate(12.712 12.868 55.359)"/><use xlink:href="#i" transform="scale(41.48237 -41.48237) rotate(3.873 25.51 198.471)"/><use xlink:href="#g" transform="matrix(41.34474 3.3763 3.3763 -41.34474 601.88 50.428)"/><use xlink:href="#j" transform="scale(41.48238 -41.48238) rotate(-13.189 2 -67.525)"/><use xlink:href="#c" transform="scale(41.4824 -41.4824) rotate(-21.432 4.117 -44.269)"/><use xlink:href="#b" transform="scale(41.48238 -41.48238) rotate(-31.147 5.265 -31.995)"/><use xlink:href="#c" transform="scale(41.48237 -41.48237) rotate(-40.535 5.69 -26.236)"/><use xlink:href="#i" transform="scale(41.48237 -41.48237) rotate(-49.039 6.045 -22.541)"/><use xlink:href="#k" transform="scale(41.48238 -41.48238) rotate(-57.712 6.257 -19.952)"/><use xlink:href="#l" transform="scale(41.48237 -41.48237) rotate(-69.838 6.459 -17.31)"/><use xlink:href="#m" transform="scale(41.48236 -41.48236) rotate(-78.109 6.61 -15.891)"/><use xlink:href="#l" transform="scale(41.48238 -41.48238) rotate(-85.971 6.685 -14.786)"/></g>&quot;/&gt;</mask><clipPath id="A"><path transform="translate(287.898 19.763)" d="M0 0h1200v480H0z"/></clipPath><mask id="D"><g clip-path="url(#C)" stroke-width="0" stroke-linejoin="round" fill="none" stroke="#fff"><use xlink:href="#b" transform="scale(41.48236 -41.48236) rotate(85.28 8.121 .207)"/><use xlink:href="#c" transform="scale(41.48236 -41.48236) rotate(75.79 8.135 1.716)"/><use xlink:href="#d" transform="scale(41.48239 -41.48239) rotate(67.171 8.323 3.187)"/><use xlink:href="#e" transform="scale(41.4824 -41.4824) rotate(59.59 8.362 5.049)"/><use xlink:href="#f" transform="scale(41.48237 -41.48237) rotate(52.588 8.623 6.878)"/><use xlink:href="#g" transform="scale(41.48236 -41.48236) rotate(44.426 8.873 9.812)"/><use xlink:href="#h" transform="scale(41.48238 -41.48238) rotate(36.37 9.215 14.037)"/><use xlink:href="#b" transform="scale(41.48237 -41.48237) rotate(22.454 10.54 27.454)"/><use xlink:href="#g" transform="scale(41.48236 -41.48236) rotate(12.712 12.868 55.359)"/><use xlink:href="#i" transform="scale(41.48237 -41.48237) rotate(3.873 25.51 198.471)"/><use xlink:href="#g" transform="matrix(41.34474 3.3763 3.3763 -41.34474 601.88 50.428)"/><use xlink:href="#j" transform="scale(41.48238 -41.48238) rotate(-13.189 2 -67.525)"/><use xlink:href="#c" transform="scale(41.4824 -41.4824) rotate(-21.432 4.117 -44.269)"/><use xlink:href="#b" transform="scale(41.48238 -41.48238) rotate(-31.147 5.265 -31.995)"/><use xlink:href="#c" transform="scale(41.48237 -41.48237) rotate(-40.535 5.69 -26.236)"/><use xlink:href="#i" transform="scale(41.48237 -41.48237) rotate(-49.039 6.045 -22.541)"/><use xlink:href="#k" transform="scale(41.48238 -41.48238) rotate(-57.712 6.257 -19.952)"/><use xlink:href="#l" transform="scale(41.48237 -41.48237) rotate(-69.838 6.459 -17.31)"/><use xlink:href="#m" transform="scale(41.48236 -41.48236) rotate(-78.109 6.61 -15.891)"/><use xlink:href="#l" transform="scale(41.48238 -41.48238) rotate(-85.971 6.685 -14.786)"/></g>&quot;/&gt;</mask><clipPath id="C"><path transform="translate(287.898 19.763)" d="M0 0h1200v480H0z"/></clipPath><g mask="url(#D)"><use xlink:href="#b" stroke-width=".07" stroke-linejoin="round" transform="scale(41.48237 -41.48237) rotate(22.454 10.54 27.454)" fill="none" stroke="#fff"/></g><mask id="F"><g clip-path="url(#E)" stroke-width="0" stroke-linejoin="round" fill="none" stroke="#fff"><use xlink:href="#b" transform="scale(41.48236 -41.48236) rotate(85.28 8.121 .207)"/><use xlink:href="#c" transform="scale(41.48236 -41.48236) rotate(75.79 8.135 1.716)"/><use xlink:href="#d" transform="scale(41.48239 -41.48239) rotate(67.171 8.323 3.187)"/><use xlink:href="#e" transform="scale(41.4824 -41.4824) rotate(59.59 8.362 5.049)"/><use xlink:href="#f" transform="scale(41.48237 -41.48237) rotate(52.588 8.623 6.878)"/><use xlink:href="#g" transform="scale(41.48236 -41.48236) rotate(44.426 8.873 9.812)"/><use xlink:href="#h" transform="scale(41.48238 -41.48238) rotate(36.37 9.215 14.037)"/><use xlink:href="#b" transform="scale(41.48237 -41.48237) rotate(22.454 10.54 27.454)"/><use xlink:href="#g" transform="scale(41.48236 -41.48236) rotate(12.712 12.868 55.359)"/><use xlink:href="#i" transform="scale(41.48237 -41.48237) rotate(3.873 25.51 198.471)"/><use xlink:href="#g" transform="matrix(41.34474 3.3763 3.3763 -41.34474 601.88 50.428)"/><use xlink:href="#j" transform="scale(41.48238 -41.48238) rotate(-13.189 2 -67.525)"/><use xlink:href="#c" transform="scale(41.4824 -41.4824) rotate(-21.432 4.117 -44.269)"/><use xlink:href="#b" transform="scale(41.48238 -41.48238) rotate(-31.147 5.265 -31.995)"/><use xlink:href="#c" transform="scale(41.48237 -41.48237) rotate(-40.535 5.69 -26.236)"/><use xlink:href="#i" transform="scale(41.48237 -41.48237) rotate(-49.039 6.045 -22.541)"/><use xlink:href="#k" transform="scale(41.48238 -41.48238) rotate(-57.712 6.257 -19.952)"/><use xlink:href="#l" transform="scale(41.48237 -41.48237) rotate(-69.838 6.459 -17.31)"/><use xlink:href="#m" transform="scale(41.48236 -41.48236) rotate(-78.109 6.61 -15.891)"/><use xlink:href="#l" transform="scale(41.48238 -41.48238) rotate(-85.971 6.685 -14.786)"/></g>&quot;/&gt;</mask><clipPath id="E"><path transform="translate(287.898 19.763)" d="M0 0h1200v480H0z"/></clipPath><g mask="url(#F)"><use xlink:href="#g" stroke-width=".07" stroke-linejoin="round" transform="scale(41.48236 -41.48236) rotate(12.712 12.868 55.359)" fill="none" stroke="#fff"/></g><mask id="H"><g clip-path="url(#G)" stroke-width="0" stroke-linejoin="round" fill="none" stroke="#fff"><use xlink:href="#b" transform="scale(41.48236 -41.48236) rotate(85.28 8.121 .207)"/><use xlink:href="#c" transform="scale(41.48236 -41.48236) rotate(75.79 8.135 1.716)"/><use xlink:href="#d" transform="scale(41.48239 -41.48239) rotate(67.171 8.323 3.187)"/><use xlink:href="#e" transform="scale(41.4824 -41.4824) rotate(59.59 8.362 5.049)"/><use xlink:href="#f" transform="scale(41.48237 -41.48237) rotate(52.588 8.623 6.878)"/><use xlink:href="#g" transform="scale(41.48236 -41.48236) rotate(44.426 8.873 9.812)"/><use xlink:href="#h" transform="scale(41.48238 -41.48238) rotate(36.37 9.215 14.037)"/><use xlink:href="#b" transform="scale(41.48237 -41.48237) rotate(22.454 10.54 27.454)"/><use xlink:href="#g" transform="scale(41.48236 -41.48236) rotate(12.712 12.868 55.359)"/><use xlink:href="#i" transform="scale(41.48237 -41.48237) rotate(3.873 25.51 198.471)"/><use xlink:href="#g" transform="matrix(41.34474 3.3763 3.3763 -41.34474 601.88 50.428)"/><use xlink:href="#j" transform="scale(41.48238 -41.48238) rotate(-13.189 2 -67.525)"/><use xlink:href="#c" transform="scale(41.4824 -41.4824) rotate(-21.432 4.117 -44.269)"/><use xlink:href="#b" transform="scale(41.48238 -41.48238) rotate(-31.147 5.265 -31.995)"/><use xlink:href="#c" transform="scale(41.48237 -41.48237) rotate(-40.535 5.69 -26.236)"/><use xlink:href="#i" transform="scale(41.48237 -41.48237) rotate(-49.039 6.045 -22.541)"/><use xlink:href="#k" transform="scale(41.48238 -41.48238) rotate(-57.712 6.257 -19.952)"/><use xlink:href="#l" transform="scale(41.48237 -41.48237) rotate(-69.838 6.459 -17.31)"/><use xlink:href="#m" transform="scale(41.48236 -41.48236) rotate(-78.109 6.61 -15.891)"/><use xlink:href="#l" transform="scale(41.48238 -41.48238) rotate(-85.971 6.685 -14.786)"/></g>&quot;/&gt;</mask><clipPath id="G"><path transform="translate(287.898 19.763)" d="M0 0h1200v480H0z"/></clipPath><g mask="url(#H)"><use xlink:href="#i" stroke-width=".07" stroke-linejoin="round" transform="scale(41.48237 -41.48237) rotate(3.873 25.51 198.471)" fill="none" stroke="#fff"/></g><mask id="J"><g clip-path="url(#I)" stroke-width="0" stroke-linejoin="round" fill="none" stroke="#fff"><use xlink:href="#b" transform="scale(41.48236 -41.48236) rotate(85.28 8.121 .207)"/><use xlink:href="#c" transform="scale(41.48236 -41.48236) rotate(75.79 8.135 1.716)"/><use xlink:href="#d" transform="scale(41.48239 -41.48239) rotate(67.171 8.323 3.187)"/><use xlink:href="#e" transform="scale(41.4824 -41.4824) rotate(59.59 8.362 5.049)"/><use xlink:href="#f" transform="scale(41.48237 -41.48237) rotate(52.588 8.623 6.878)"/><use xlink:href="#g" transform="scale(41.48236 -41.48236) rotate(44.426 8.873 9.812)"/><use xlink:href="#h" transform="scale(41.48238 -41.48238) rotate(36.37 9.215 14.037)"/><use xlink:href="#b" transform="scale(41.48237 -41.48237) rotate(22.454 10.54 27.454)"/><use xlink:href="#g" transform="scale(41.48236 -41.48236) rotate(12.712 12.868 55.359)"/><use xlink:href="#i" transform="scale(41.48237 -41.48237) rotate(3.873 25.51 198.471)"/><use xlink:href="#g" transform="matrix(41.34474 3.3763 3.3763 -41.34474 601.88 50.428)"/><use xlink:href="#j" transform="scale(41.48238 -41.48238) rotate(-13.189 2 -67.525)"/><use xlink:href="#c" transform="scale(41.4824 -41.4824) rotate(-21.432 4.117 -44.269)"/><use xlink:href="#b" transform="scale(41.48238 -41.48238) rotate(-31.147 5.265 -31.995)"/><use xlink:href="#c" transform="scale(41.48237 -41.48237) rotate(-40.535 5.69 -26.236)"/><use xlink:href="#i" transform="scale(41.48237 -41.48237) rotate(-49.039 6.045 -22.541)"/><use xlink:href="#k" transform="scale(41.48238 -41.48238) rotate(-57.712 6.257 -19.952)"/><use xlink:href="#l" transform="scale(41.48237 -41.48237) rotate(-69.838 6.459 -17.31)"/><use xlink:href="#m" transform="scale(41.48236 -41.48236) rotate(-78.109 6.61 -15.891)"/><use xlink:href="#l" transform="scale(41.48238 -41.48238) rotate(-85.971 6.685 -14.786)"/></g>&quot;/&gt;</mask><clipPath id="I"><path transform="translate(287.898 19.763)" d="M0 0h1200v480H0z"/></clipPath><g mask="url(#J)"><use xlink:href="#g" stroke-width=".07" stroke-linejoin="round" transform="matrix(41.34474 3.3763 3.3763 -41.34474 601.88 50.428)" fill="none" stroke="#fff"/></g><mask id="L"><g clip-path="url(#K)" stroke-width="0" stroke-linejoin="round" fill="none" stroke="#fff"><use xlink:href="#b" transform="scale(41.48236 -41.48236) rotate(85.28 8.121 .207)"/><use xlink:href="#c" transform="scale(41.48236 -41.48236) rotate(75.79 8.135 1.716)"/><use xlink:href="#d" transform="scale(41.48239 -41.48239) rotate(67.171 8.323 3.187)"/><use xlink:href="#e" transform="scale(41.4824 -41.4824) rotate(59.59 8.362 5.049)"/><use xlink:href="#f" transform="scale(41.48237 -41.48237) rotate(52.588 8.623 6.878)"/><use xlink:href="#g" transform="scale(41.48236 -41.48236) rotate(44.426 8.873 9.812)"/><use xlink:href="#h" transform="scale(41.48238 -41.48238) rotate(36.37 9.215 14.037)"/><use xlink:href="#b" transform="scale(41.48237 -41.48237) rotate(22.454 10.54 27.454)"/><use xlink:href="#g" transform="scale(41.48236 -41.48236) rotate(12.712 12.868 55.359)"/><use xlink:href="#i" transform="scale(41.48237 -41.48237) rotate(3.873 25.51 198.471)"/><use xlink:href="#g" transform="matrix(41.34474 3.3763 3.3763 -41.34474 601.88 50.428)"/><use xlink:href="#j" transform="scale(41.48238 -41.48238) rotate(-13.189 2 -67.525)"/><use xlink:href="#c" transform="scale(41.4824 -41.4824) rotate(-21.432 4.117 -44.269)"/><use xlink:href="#b" transform="scale(41.48238 -41.48238) rotate(-31.147 5.265 -31.995)"/><use xlink:href="#c" transform="scale(41.48237 -41.48237) rotate(-40.535 5.69 -26.236)"/><use xlink:href="#i" transform="scale(41.48237 -41.48237) rotate(-49.039 6.045 -22.541)"/><use xlink:href="#k" transform="scale(41.48238 -41.48238) rotate(-57.712 6.257 -19.952)"/><use xlink:href="#l" transform="scale(41.48237 -41.48237) rotate(-69.838 6.459 -17.31)"/><use xlink:href="#m" transform="scale(41.48236 -41.48236) rotate(-78.109 6.61 -15.891)"/><use xlink:href="#l" transform="scale(41.48238 -41.48238) rotate(-85.971 6.685 -14.786)"/></g>&quot;/&gt;</mask><clipPath id="K"><path transform="translate(287.898 19.763)" d="M0 0h1200v480H0z"/></clipPath><g mask="url(#L)"><use xlink:href="#j" stroke-width=".07" stroke-linejoin="round" transform="scale(41.48238 -41.48238) rotate(-13.189 2 -67.525)" fill="none" stroke="#fff"/></g><mask id="N"><g clip-path="url(#M)" stroke-width="0" stroke-linejoin="round" fill="none" stroke="#fff"><use xlink:href="#b" transform="scale(41.48236 -41.48236) rotate(85.28 8.121 .207)"/><use xlink:href="#c" transform="scale(41.48236 -41.48236) rotate(75.79 8.135 1.716)"/><use xlink:href="#d" transform="scale(41.48239 -41.48239) rotate(67.171 8.323 3.187)"/><use xlink:href="#e" transform="scale(41.4824 -41.4824) rotate(59.59 8.362 5.049)"/><use xlink:href="#f" transform="scale(41.48237 -41.48237) rotate(52.588 8.623 6.878)"/><use xlink:href="#g" transform="scale(41.48236 -41.48236) rotate(44.426 8.873 9.812)"/><use xlink:href="#h" transform="scale(41.48238 -41.48238) rotate(36.37 9.215 14.037)"/><use xlink:href="#b" transform="scale(41.48237 -41.48237) rotate(22.454 10.54 27.454)"/><use xlink:href="#g" transform="scale(41.48236 -41.48236) rotate(12.712 12.868 55.359)"/><use xlink:href="#i" transform="scale(41.48237 -41.48237) rotate(3.873 25.51 198.471)"/><use xlink:href="#g" transform="matrix(41.34474 3.3763 3.3763 -41.34474 601.88 50.428)"/><use xlink:href="#j" transform="scale(41.48238 -41.48238) rotate(-13.189 2 -67.525)"/><use xlink:href="#c" transform="scale(41.4824 -41.4824) rotate(-21.432 4.117 -44.269)"/><use xlink:href="#b" transform="scale(41.48238 -41.48238) rotate(-31.147 5.265 -31.995)"/><use xlink:href="#c" transform="scale(41.48237 -41.48237) rotate(-40.535 5.69 -26.236)"/><use xlink:href="#i" transform="scale(41.48237 -41.48237) rotate(-49.039 6.045 -22.541)"/><use xlink:href="#k" transform="scale(41.48238 -41.48238) rotate(-57.712 6.257 -19.952)"/><use xlink:href="#l" transform="scale(41.48237 -41.48237) rotate(-69.838 6.459 -17.31)"/><use xlink:href="#m" transform="scale(41.48236 -41.48236) rotate(-78.109 6.61 -15.891)"/><use xlink:href="#l" transform="scale(41.48238 -41.48238) rotate(-85.971 6.685 -14.786)"/></g>&quot;/&gt;</mask><clipPath id="M"><path transform="translate(287.898 19.763)" d="M0 0h1200v480H0z"/></clipPath><g mask="url(#N)"><use xlink:href="#c" stroke-width=".07" stroke-linejoin="round" transform="scale(41.4824 -41.4824) rotate(-21.432 4.117 -44.269)" fill="none" stroke="#fff"/></g><mask id="P"><g clip-path="url(#O)" stroke-width="0" stroke-linejoin="round" fill="none" stroke="#fff"><use xlink:href="#b" transform="scale(41.48236 -41.48236) rotate(85.28 8.121 .207)"/><use xlink:href="#c" transform="scale(41.48236 -41.48236) rotate(75.79 8.135 1.716)"/><use xlink:href="#d" transform="scale(41.48239 -41.48239) rotate(67.171 8.323 3.187)"/><use xlink:href="#e" transform="scale(41.4824 -41.4824) rotate(59.59 8.362 5.049)"/><use xlink:href="#f" transform="scale(41.48237 -41.48237) rotate(52.588 8.623 6.878)"/><use xlink:href="#g" transform="scale(41.48236 -41.48236) rotate(44.426 8.873 9.812)"/><use xlink:href="#h" transform="scale(41.48238 -41.48238) rotate(36.37 9.215 14.037)"/><use xlink:href="#b" transform="scale(41.48237 -41.48237) rotate(22.454 10.54 27.454)"/><use xlink:href="#g" transform="scale(41.48236 -41.48236) rotate(12.712 12.868 55.359)"/><use xlink:href="#i" transform="scale(41.48237 -41.48237) rotate(3.873 25.51 198.471)"/><use xlink:href="#g" transform="matrix(41.34474 3.3763 3.3763 -41.34474 601.88 50.428)"/><use xlink:href="#j" transform="scale(41.48238 -41.48238) rotate(-13.189 2 -67.525)"/><use xlink:href="#c" transform="scale(41.4824 -41.4824) rotate(-21.432 4.117 -44.269)"/><use xlink:href="#b" transform="scale(41.48238 -41.48238) rotate(-31.147 5.265 -31.995)"/><use xlink:href="#c" transform="scale(41.48237 -41.48237) rotate(-40.535 5.69 -26.236)"/><use xlink:href="#i" transform="scale(41.48237 -41.48237) rotate(-49.039 6.045 -22.541)"/><use xlink:href="#k" transform="scale(41.48238 -41.48238) rotate(-57.712 6.257 -19.952)"/><use xlink:href="#l" transform="scale(41.48237 -41.48237) rotate(-69.838 6.459 -17.31)"/><use xlink:href="#m" transform="scale(41.48236 -41.48236) rotate(-78.109 6.61 -15.891)"/><use xlink:href="#l" transform="scale(41.48238 -41.48238) rotate(-85.971 6.685 -14.786)"/></g>&quot;/&gt;</mask><clipPath id="O"><path transform="translate(287.898 19.763)" d="M0 0h1200v480H0z"/></clipPath><g mask="url(#P)"><use xlink:href="#b" stroke-width=".07" stroke-linejoin="round" transform="scale(41.48238 -41.48238) rotate(-31.147 5.265 -31.995)" fill="none" stroke="#fff"/></g><mask id="R"><g clip-path="url(#Q)" stroke-width="0" stroke-linejoin="round" fill="none" stroke="#fff"><use xlink:href="#b" transform="scale(41.48236 -41.48236) rotate(85.28 8.121 .207)"/><use xlink:href="#c" transform="scale(41.48236 -41.48236) rotate(75.79 8.135 1.716)"/><use xlink:href="#d" transform="scale(41.48239 -41.48239) rotate(67.171 8.323 3.187)"/><use xlink:href="#e" transform="scale(41.4824 -41.4824) rotate(59.59 8.362 5.049)"/><use xlink:href="#f" transform="scale(41.48237 -41.48237) rotate(52.588 8.623 6.878)"/><use xlink:href="#g" transform="scale(41.48236 -41.48236) rotate(44.426 8.873 9.812)"/><use xlink:href="#h" transform="scale(41.48238 -41.48238) rotate(36.37 9.215 14.037)"/><use xlink:href="#b" transform="scale(41.48237 -41.48237) rotate(22.454 10.54 27.454)"/><use xlink:href="#g" transform="scale(41.48236 -41.48236) rotate(12.712 12.868 55.359)"/><use xlink:href="#i" transform="scale(41.48237 -41.48237) rotate(3.873 25.51 198.471)"/><use xlink:href="#g" transform="matrix(41.34474 3.3763 3.3763 -41.34474 601.88 50.428)"/><use xlink:href="#j" transform="scale(41.48238 -41.48238) rotate(-13.189 2 -67.525)"/><use xlink:href="#c" transform="scale(41.4824 -41.4824) rotate(-21.432 4.117 -44.269)"/><use xlink:href="#b" transform="scale(41.48238 -41.48238) rotate(-31.147 5.265 -31.995)"/><use xlink:href="#c" transform="scale(41.48237 -41.48237) rotate(-40.535 5.69 -26.236)"/><use xlink:href="#i" transform="scale(41.48237 -41.48237) rotate(-49.039 6.045 -22.541)"/><use xlink:href="#k" transform="scale(41.48238 -41.48238) rotate(-57.712 6.257 -19.952)"/><use xlink:href="#l" transform="scale(41.48237 -41.48237) rotate(-69.838 6.459 -17.31)"/><use xlink:href="#m" transform="scale(41.48236 -41.48236) rotate(-78.109 6.61 -15.891)"/><use xlink:href="#l" transform="scale(41.48238 -41.48238) rotate(-85.971 6.685 -14.786)"/></g>&quot;/&gt;</mask><clipPath id="Q"><path transform="translate(287.898 19.763)" d="M0 0h1200v480H0z"/></clipPath><g mask="url(#R)"><use xlink:href="#c" stroke-width=".07" stroke-linejoin="round" transform="scale(41.48237 -41.48237) rotate(-40.535 5.69 -26.236)" fill="none" stroke="#fff"/></g><mask id="T"><g clip-path="url(#S)" stroke-width="0" stroke-linejoin="round" fill="none" stroke="#fff"><use xlink:href="#b" transform="scale(41.48236 -41.48236) rotate(85.28 8.121 .207)"/><use xlink:href="#c" transform="scale(41.48236 -41.48236) rotate(75.79 8.135 1.716)"/><use xlink:href="#d" transform="scale(41.48239 -41.48239) rotate(67.171 8.323 3.187)"/><use xlink:href="#e" transform="scale(41.4824 -41.4824) rotate(59.59 8.362 5.049)"/><use xlink:href="#f" transform="scale(41.48237 -41.48237) rotate(52.588 8.623 6.878)"/><use xlink:href="#g" transform="scale(41.48236 -41.48236) rotate(44.426 8.873 9.812)"/><use xlink:href="#h" transform="scale(41.48238 -41.48238) rotate(36.37 9.215 14.037)"/><use xlink:href="#b" transform="scale(41.48237 -41.48237) rotate(22.454 10.54 27.454)"/><use xlink:href="#g" transform="scale(41.48236 -41.48236) rotate(12.712 12.868 55.359)"/><use xlink:href="#i" transform="scale(41.48237 -41.48237) rotate(3.873 25.51 198.471)"/><use xlink:href="#g" transform="matrix(41.34474 3.3763 3.3763 -41.34474 601.88 50.428)"/><use xlink:href="#j" transform="scale(41.48238 -41.48238) rotate(-13.189 2 -67.525)"/><use xlink:href="#c" transform="scale(41.4824 -41.4824) rotate(-21.432 4.117 -44.269)"/><use xlink:href="#b" transform="scale(41.48238 -41.48238) rotate(-31.147 5.265 -31.995)"/><use xlink:href="#c" transform="scale(41.48237 -41.48237) rotate(-40.535 5.69 -26.236)"/><use xlink:href="#i" transform="scale(41.48237 -41.48237) rotate(-49.039 6.045 -22.541)"/><use xlink:href="#k" transform="scale(41.48238 -41.48238) rotate(-57.712 6.257 -19.952)"/><use xlink:href="#l" transform="scale(41.48237 -41.48237) rotate(-69.838 6.459 -17.31)"/><use xlink:href="#m" transform="scale(41.48236 -41.48236) rotate(-78.109 6.61 -15.891)"/><use xlink:href="#l" transform="scale(41.48238 -41.48238) rotate(-85.971 6.685 -14.786)"/></g>&quot;/&gt;</mask><clipPath id="S"><path transform="translate(287.898 19.763)" d="M0 0h1200v480H0z"/></clipPath><g mask="url(#T)"><use xlink:href="#i" stroke-width=".07" stroke-linejoin="round" transform="scale(41.48237 -41.48237) rotate(-49.039 6.045 -22.541)" fill="none" stroke="#fff"/></g><mask id="V"><g clip-path="url(#U)" stroke-width="0" stroke-linejoin="round" fill="none" stroke="#fff"><use xlink:href="#b" transform="scale(41.48236 -41.48236) rotate(85.28 8.121 .207)"/><use xlink:href="#c" transform="scale(41.48236 -41.48236) rotate(75.79 8.135 1.716)"/><use xlink:href="#d" transform="scale(41.48239 -41.48239) rotate(67.171 8.323 3.187)"/><use xlink:href="#e" transform="scale(41.4824 -41.4824) rotate(59.59 8.362 5.049)"/><use xlink:href="#f" transform="scale(41.48237 -41.48237) rotate(52.588 8.623 6.878)"/><use xlink:href="#g" transform="scale(41.48236 -41.48236) rotate(44.426 8.873 9.812)"/><use xlink:href="#h" transform="scale(41.48238 -41.48238) rotate(36.37 9.215 14.037)"/><use xlink:href="#b" transform="scale(41.48237 -41.48237) rotate(22.454 10.54 27.454)"/><use xlink:href="#g" transform="scale(41.48236 -41.48236) rotate(12.712 12.868 55.359)"/><use xlink:href="#i" transform="scale(41.48237 -41.48237) rotate(3.873 25.51 198.471)"/><use xlink:href="#g" transform="matrix(41.34474 3.3763 3.3763 -41.34474 601.88 50.428)"/><use xlink:href="#j" transform="scale(41.48238 -41.48238) rotate(-13.189 2 -67.525)"/><use xlink:href="#c" transform="scale(41.4824 -41.4824) rotate(-21.432 4.117 -44.269)"/><use xlink:href="#b" transform="scale(41.48238 -41.48238) rotate(-31.147 5.265 -31.995)"/><use xlink:href="#c" transform="scale(41.48237 -41.48237) rotate(-40.535 5.69 -26.236)"/><use xlink:href="#i" transform="scale(41.48237 -41.48237) rotate(-49.039 6.045 -22.541)"/><use xlink:href="#k" transform="scale(41.48238 -41.48238) rotate(-57.712 6.257 -19.952)"/><use xlink:href="#l" transform="scale(41.48237 -41.48237) rotate(-69.838 6.459 -17.31)"/><use xlink:href="#m" transform="scale(41.48236 -41.48236) rotate(-78.109 6.61 -15.891)"/><use xlink:href="#l" transform="scale(41.48238 -41.48238) rotate(-85.971 6.685 -14.786)"/></g>&quot;/&gt;</mask><clipPath id="U"><path transform="translate(287.898 19.763)" d="M0 0h1200v480H0z"/></clipPath><g mask="url(#V)"><use xlink:href="#k" stroke-width=".07" stroke-linejoin="round" transform="scale(41.48238 -41.48238) rotate(-57.712 6.257 -19.952)" fill="none" stroke="#fff"/></g><mask id="X"><g clip-path="url(#W)" stroke-width="0" stroke-linejoin="round" fill="none" stroke="#fff"><use xlink:href="#b" transform="scale(41.48236 -41.48236) rotate(85.28 8.121 .207)"/><use xlink:href="#c" transform="scale(41.48236 -41.48236) rotate(75.79 8.135 1.716)"/><use xlink:href="#d" transform="scale(41.48239 -41.48239) rotate(67.171 8.323 3.187)"/><use xlink:href="#e" transform="scale(41.4824 -41.4824) rotate(59.59 8.362 5.049)"/><use xlink:href="#f" transform="scale(41.48237 -41.48237) rotate(52.588 8.623 6.878)"/><use xlink:href="#g" transform="scale(41.48236 -41.48236) rotate(44.426 8.873 9.812)"/><use xlink:href="#h" transform="scale(41.48238 -41.48238) rotate(36.37 9.215 14.037)"/><use xlink:href="#b" transform="scale(41.48237 -41.48237) rotate(22.454 10.54 27.454)"/><use xlink:href="#g" transform="scale(41.48236 -41.48236) rotate(12.712 12.868 55.359)"/><use xlink:href="#i" transform="scale(41.48237 -41.48237) rotate(3.873 25.51 198.471)"/><use xlink:href="#g" transform="matrix(41.34474 3.3763 3.3763 -41.34474 601.88 50.428)"/><use xlink:href="#j" transform="scale(41.48238 -41.48238) rotate(-13.189 2 -67.525)"/><use xlink:href="#c" transform="scale(41.4824 -41.4824) rotate(-21.432 4.117 -44.269)"/><use xlink:href="#b" transform="scale(41.48238 -41.48238) rotate(-31.147 5.265 -31.995)"/><use xlink:href="#c" transform="scale(41.48237 -41.48237) rotate(-40.535 5.69 -26.236)"/><use xlink:href="#i" transform="scale(41.48237 -41.48237) rotate(-49.039 6.045 -22.541)"/><use xlink:href="#k" transform="scale(41.48238 -41.48238) rotate(-57.712 6.257 -19.952)"/><use xlink:href="#l" transform="scale(41.48237 -41.48237) rotate(-69.838 6.459 -17.31)"/><use xlink:href="#m" transform="scale(41.48236 -41.48236) rotate(-78.109 6.61 -15.891)"/><use xlink:href="#l" transform="scale(41.48238 -41.48238) rotate(-85.971 6.685 -14.786)"/></g>&quot;/&gt;</mask><clipPath id="W"><path transform="translate(287.898 19.763)" d="M0 0h1200v480H0z"/></clipPath><mask id="Z"><g clip-path="url(#Y)" stroke-width="0" stroke-linejoin="round" fill="none" stroke="#fff"><use xlink:href="#b" transform="scale(41.48236 -41.48236) rotate(85.28 8.121 .207)"/><use xlink:href="#c" transform="scale(41.48236 -41.48236) rotate(75.79 8.135 1.716)"/><use xlink:href="#d" transform="scale(41.48239 -41.48239) rotate(67.171 8.323 3.187)"/><use xlink:href="#e" transform="scale(41.4824 -41.4824) rotate(59.59 8.362 5.049)"/><use xlink:href="#f" transform="scale(41.48237 -41.48237) rotate(52.588 8.623 6.878)"/><use xlink:href="#g" transform="scale(41.48236 -41.48236) rotate(44.426 8.873 9.812)"/><use xlink:href="#h" transform="scale(41.48238 -41.48238) rotate(36.37 9.215 14.037)"/><use xlink:href="#b" transform="scale(41.48237 -41.48237) rotate(22.454 10.54 27.454)"/><use xlink:href="#g" transform="scale(41.48236 -41.48236) rotate(12.712 12.868 55.359)"/><use xlink:href="#i" transform="scale(41.48237 -41.48237) rotate(3.873 25.51 198.471)"/><use xlink:href="#g" transform="matrix(41.34474 3.3763 3.3763 -41.34474 601.88 50.428)"/><use xlink:href="#j" transform="scale(41.48238 -41.48238) rotate(-13.189 2 -67.525)"/><use xlink:href="#c" transform="scale(41.4824 -41.4824) rotate(-21.432 4.117 -44.269)"/><use xlink:href="#b" transform="scale(41.48238 -41.48238) rotate(-31.147 5.265 -31.995)"/><use xlink:href="#c" transform="scale(41.48237 -41.48237) rotate(-40.535 5.69 -26.236)"/><use xlink:href="#i" transform="scale(41.48237 -41.48237) rotate(-49.039 6.045 -22.541)"/><use xlink:href="#k" transform="scale(41.48238 -41.48238) rotate(-57.712 6.257 -19.952)"/><use xlink:href="#l" transform="scale(41.48237 -41.48237) rotate(-69.838 6.459 -17.31)"/><use xlink:href="#m" transform="scale(41.48236 -41.48236) rotate(-78.109 6.61 -15.891)"/><use xlink:href="#l" transform="scale(41.48238 -41.48238) rotate(-85.971 6.685 -14.786)"/></g>&quot;/&gt;</mask><clipPath id="Y"><path transform="translate(287.898 19.763)" d="M0 0h1200v480H0z"/></clipPath><g mask="url(#Z)"><use xlink:href="#l" stroke-width=".07" stroke-linejoin="round" transform="scale(41.48237 -41.48237) rotate(-69.838 6.459 -17.31)" fill="none" stroke="#fff"/></g><mask id="ab"><g clip-path="url(#aa)" stroke-width="0" stroke-linejoin="round" fill="none" stroke="#fff"><use xlink:href="#b" transform="scale(41.48236 -41.48236) rotate(85.28 8.121 .207)"/><use xlink:href="#c" transform="scale(41.48236 -41.48236) rotate(75.79 8.135 1.716)"/><use xlink:href="#d" transform="scale(41.48239 -41.48239) rotate(67.171 8.323 3.187)"/><use xlink:href="#e" transform="scale(41.4824 -41.4824) rotate(59.59 8.362 5.049)"/><use xlink:href="#f" transform="scale(41.48237 -41.48237) rotate(52.588 8.623 6.878)"/><use xlink:href="#g" transform="scale(41.48236 -41.48236) rotate(44.426 8.873 9.812)"/><use xlink:href="#h" transform="scale(41.48238 -41.48238) rotate(36.37 9.215 14.037)"/><use xlink:href="#b" transform="scale(41.48237 -41.48237) rotate(22.454 10.54 27.454)"/><use xlink:href="#g" transform="scale(41.48236 -41.48236) rotate(12.712 12.868 55.359)"/><use xlink:href="#i" transform="scale(41.48237 -41.48237) rotate(3.873 25.51 198.471)"/><use xlink:href="#g" transform="matrix(41.34474 3.3763 3.3763 -41.34474 601.88 50.428)"/><use xlink:href="#j" transform="scale(41.48238 -41.48238) rotate(-13.189 2 -67.525)"/><use xlink:href="#c" transform="scale(41.4824 -41.4824) rotate(-21.432 4.117 -44.269)"/><use xlink:href="#b" transform="scale(41.48238 -41.48238) rotate(-31.147 5.265 -31.995)"/><use xlink:href="#c" transform="scale(41.48237 -41.48237) rotate(-40.535 5.69 -26.236)"/><use xlink:href="#i" transform="scale(41.48237 -41.48237) rotate(-49.039 6.045 -22.541)"/><use xlink:href="#k" transform="scale(41.48238 -41.48238) rotate(-57.712 6.257 -19.952)"/><use xlink:href="#l" transform="scale(41.48237 -41.48237) rotate(-69.838 6.459 -17.31)"/><use xlink:href="#m" transform="scale(41.48236 -41.48236) rotate(-78.109 6.61 -15.891)"/><use xlink:href="#l" transform="scale(41.48238 -41.48238) rotate(-85.971 6.685 -14.786)"/></g>&quot;/&gt;</mask><clipPath id="aa"><path transform="translate(287.898 19.763)" d="M0 0h1200v480H0z"/></clipPath><g mask="url(#ab)"><use xlink:href="#m" stroke-width=".07" stroke-linejoin="round" transform="scale(41.48236 -41.48236) rotate(-78.109 6.61 -15.891)" fill="none" stroke="#fff"/></g><mask id="ad"><g clip-path="url(#ac)" stroke-width="0" stroke-linejoin="round" fill="none" stroke="#fff"><use xlink:href="#b" transform="scale(41.48236 -41.48236) rotate(85.28 8.121 .207)"/><use xlink:href="#c" transform="scale(41.48236 -41.48236) rotate(75.79 8.135 1.716)"/><use xlink:href="#d" transform="scale(41.48239 -41.48239) rotate(67.171 8.323 3.187)"/><use xlink:href="#e" transform="scale(41.4824 -41.4824) rotate(59.59 8.362 5.049)"/><use xlink:href="#f" transform="scale(41.48237 -41.48237) rotate(52.588 8.623 6.878)"/><use xlink:href="#g" transform="scale(41.48236 -41.48236) rotate(44.426 8.873 9.812)"/><use xlink:href="#h" transform="scale(41.48238 -41.48238) rotate(36.37 9.215 14.037)"/><use xlink:href="#b" transform="scale(41.48237 -41.48237) rotate(22.454 10.54 27.454)"/><use xlink:href="#g" transform="scale(41.48236 -41.48236) rotate(12.712 12.868 55.359)"/><use xlink:href="#i" transform="scale(41.48237 -41.48237) rotate(3.873 25.51 198.471)"/><use xlink:href="#g" transform="matrix(41.34474 3.3763 3.3763 -41.34474 601.88 50.428)"/><use xlink:href="#j" transform="scale(41.48238 -41.48238) rotate(-13.189 2 -67.525)"/><use xlink:href="#c" transform="scale(41.4824 -41.4824) rotate(-21.432 4.117 -44.269)"/><use xlink:href="#b" transform="scale(41.48238 -41.48238) rotate(-31.147 5.265 -31.995)"/><use xlink:href="#c" transform="scale(41.48237 -41.48237) rotate(-40.535 5.69 -26.236)"/><use xlink:href="#i" transform="scale(41.48237 -41.48237) rotate(-49.039 6.045 -22.541)"/><use xlink:href="#k" transform="scale(41.48238 -41.48238) rotate(-57.712 6.257 -19.952)"/><use xlink:href="#l" transform="scale(41.48237 -41.48237) rotate(-69.838 6.459 -17.31)"/><use xlink:href="#m" transform="scale(41.48236 -41.48236) rotate(-78.109 6.61 -15.891)"/><use xlink:href="#l" transform="scale(41.48238 -41.48238) rotate(-85.971 6.685 -14.786)"/></g>&quot;/&gt;</mask><clipPath id="ac"><path transform="translate(287.898 19.763)" d="M0 0h1200v480H0z"/></clipPath><g mask="url(#ad)"><use xlink:href="#l" stroke-width=".07" stroke-linejoin="round" transform="scale(41.48238 -41.48238) rotate(-85.971 6.685 -14.786)" fill="none" stroke="#fff"/></g><use xlink:href="#b" transform="scale(41.48236 -41.48236) rotate(85.28 8.121 .207)" fill="#152fa3"/><use xlink:href="#c" transform="scale(41.48236 -41.48236) rotate(75.79 8.135 1.716)" fill="#152fa3"/><use xlink:href="#d" transform="scale(41.48239 -41.48239) rotate(67.171 8.323 3.187)" fill="#152fa3"/><use xlink:href="#e" transform="scale(41.4824 -41.4824) rotate(59.59 8.362 5.049)" fill="#152fa3"/><use xlink:href="#f" transform="scale(41.48237 -41.48237) rotate(52.588 8.623 6.878)" fill="#152fa3"/><use xlink:href="#g" transform="scale(41.48236 -41.48236) rotate(44.426 8.873 9.812)" fill="#152fa3"/><use xlink:href="#h" transform="scale(41.48238 -41.48238) rotate(36.37 9.215 14.037)" fill="#152fa3"/><use xlink:href="#b" transform="scale(41.48237 -41.48237) rotate(22.454 10.54 27.454)" fill="#152fa3"/><use xlink:href="#g" transform="scale(41.48236 -41.48236) rotate(12.712 12.868 55.359)" fill="#152fa3"/><use xlink:href="#i" transform="scale(41.48237 -41.48237) rotate(3.873 25.51 198.471)" fill="#152fa3"/><use xlink:href="#g" transform="matrix(41.34474 3.3763 3.3763 -41.34474 601.88 50.428)" fill="#152fa3"/><use xlink:href="#j" transform="scale(41.48238 -41.48238) rotate(-13.189 2 -67.525)" fill="#152fa3"/><use xlink:href="#c" transform="scale(41.4824 -41.4824) rotate(-21.432 4.117 -44.269)" fill="#152fa3"/><use xlink:href="#b" transform="scale(41.48238 -41.48238) rotate(-31.147 5.265 -31.995)" fill="#152fa3"/><use xlink:href="#c" transform="scale(41.48237 -41.48237) rotate(-40.535 5.69 -26.236)" fill="#152fa3"/><use xlink:href="#i" transform="scale(41.48237 -41.48237) rotate(-49.039 6.045 -22.541)" fill="#152fa3"/><use xlink:href="#k" transform="scale(41.48238 -41.48238) rotate(-57.712 6.257 -19.952)" fill="#152fa3"/><use xlink:href="#l" transform="scale(41.48237 -41.48237) rotate(-69.838 6.459 -17.31)" fill="#152fa3"/><use xlink:href="#m" transform="scale(41.48236 -41.48236) rotate(-78.109 6.61 -15.891)" fill="#152fa3"/><use xlink:href="#l" transform="scale(41.48238 -41.48238) rotate(-85.971 6.685 -14.786)" fill="#152fa3"/><path d="M493.141 182.565v126.77h206.865v-126.77l11.237 10.084 15.27-17.287-129.94-114.38-130.226 114.092 15.27 17.286zm184.104-20.168v123.888H516.19V162.397l80.384-70.876z" fill="#0d6126"/><path d="M547.595 219.443h37.454v37.743h23.05v-37.743h37.454v-23.049h-37.455v-37.455H585.05v37.455h-37.454v23.049zM415.723 375.334c-7.364-1.727-28.111-6.86-37.537-9.762.527-1.966 1.51-3.334 3.046-4.125 4.341-2.279 12.352.336 20.867 3.478 7.387 2.662 13.48 2.806 16.55.503l-1.943 10.146c-.336-.048-.648-.144-.983-.24zM267.038 399.8c35.81 9.642 81.79 18.565 100.09 20.94l9.835-55.55h.024c.623-2.303 1.846-3.934 3.645-4.87 4.773-2.494 13.096.192 21.875 3.383 8.73 3.19 13.911 2.254 15.83.335.384-.383.624-.791.792-1.27l.167-.792h.024c.072-.648-.024-1.368-.311-2.111-1.344-3.67-24.513-7.484-43.174-10.506-7.34-1.247-14.271-2.374-19.98-3.501-29.813-5.757-57.732-13.552-69.653-16.838-1.439-.432-2.686-.744-3.645-1.031l36.481 47.418-52 24.393zm523.574-34.898c-7.364 2.662-13.456 2.806-16.526.503l1.919 10.146c.335-.096.671-.144 1.007-.24 7.34-1.727 28.087-6.86 37.537-9.762-.528-1.966-1.535-3.334-3.022-4.125-4.342-2.255-12.353.336-20.915 3.478zm-17.03-2.159c.168.48.432.888.792 1.271 1.918 1.92 7.075 2.855 15.83-.335 8.802-3.19 17.101-5.877 21.874-3.382 1.823.935 3.022 2.566 3.67 4.869h.024l.12.695 9.714 54.854c18.277-2.35 64.28-11.273 100.066-20.939l-52-24.44 36.482-47.42c-.96.288-2.23.6-3.67 1.032-11.92 3.286-39.84 11.081-69.653 16.838-5.708 1.127-12.616 2.254-19.98 3.501-18.636 3.047-41.83 6.836-43.173 10.506-.288.743-.384 1.463-.312 2.11h.048l.168.84zm-374.721 9.738c-7.651-1.919-15.83-4.101-20.915-5.636l-.144.791-11.657 65.887c1.44.456 2.567.816 3.526 1.128 4.365 1.39 5.397 1.727 12.232 3.502 53.535 13.911 151.683 25.664 214.38 25.664 62.77 0 161.013-11.753 214.548-25.664 6.86-1.775 7.891-2.087 12.233-3.502 1.007-.312 2.11-.672 3.55-1.128l-11.657-65.887-.144-.791c-5.085 1.535-13.312 3.717-20.987 5.684-6.764 1.679-13.072 3.238-16.478 4.03-56.03 13.36-142.712 16.885-180.729 16.885-38.184 0-125.155-3.526-181.184-16.885-3.454-.816-9.81-2.351-16.574-4.078z" fill="#0d6126"/><path d="M478.798 436.563c-.921 7.196-4.606 4.951-4.606 7.427 0 1.785 2.36 1.67 2.994 1.67h6.563c.633 0 2.994.115 2.994-1.67 0-2.476-3.685-.23-4.606-7.427v-9.903l-3.224-9.5h-.115zm23.777 2.648c0 2.13.058 2.476-1.957 3.11-.748.23-1.267.748-1.267 1.554 0 1.67 1.9 1.784 2.13 1.784h16.294c.23 0 2.13-.115 2.13-1.784 0-.806-.518-1.325-1.267-1.555-2.015-.633-1.957-.979-1.957-3.109v-30.168c0-2.13-.058-2.476 1.957-3.109.749-.23 1.267-.748 1.267-1.554 0-1.67-1.9-1.785-2.13-1.785h-15.2zm-28.613-34.831c0 1.381 1.554 1.497 2.245 1.554.979.058 1.21.749 1.727 1.612.46.749.749 1.612 1.037 2.476l12.032 35.637h1.67l7.312-24.468v-10.478h-.115l-2.591 9.557h-.115l-6.16-17.675H476.38c-.691 0-2.418 0-2.418 1.785zm50.376 0c0 .806.518 1.324 1.267 1.554 2.015.633 1.957.979 1.957 3.109v30.168c0 2.13.058 2.476-1.957 3.11-.749.23-1.267.748-1.267 1.554 0 1.67 1.9 1.784 2.13 1.784h15.2v-43.064h-15.2c-.23 0-2.13.115-2.13 1.785zm19.92 1.554c5.067.806 8.003 3.627 9.5 8.29.288.864.576 1.44 1.554 1.44 1.727 0 1.785-1.094 1.785-1.382v-11.687h-12.839zm0 39.725H557.5v-11.514c0-.23.173-1.958-1.67-1.958-1.036 0-1.381.922-1.784 1.785-1.555 4.606-5.124 7.772-9.788 8.348zm0-20.265c2.418.633 3.512 2.878 4.03 5.066.288.979.634 1.9 1.843 1.9 1.784 0 1.497-2.073 1.497-2.533V417.39c0-.46.287-2.533-1.497-2.533-1.21 0-1.555.921-1.843 1.9-.518 2.188-1.612 4.433-4.03 5.066zm37.25-19.46c3.512.46 3.685 3.742 3.685 5.93v24.526c0 2.188-.173 5.47-3.685 5.93v3.34c9.557 0 19.287-8.003 18.654-21.533-.691-14.854-8.867-21.647-18.654-21.532zm-2.59-3.34h-14.74c-1.151 0-2.59.174-2.59 1.67 0 1.44 1.094 1.613 2.245 2.016 1.094.345.979 1.9.979 2.763v30.168c0 2.13.057 2.476-1.958 3.11-.748.23-1.266.748-1.266 1.554 0 1.67 1.439 1.784 2.706 1.784h14.623zm42.949 6.449c0-2.13-.058-2.476 1.957-3.109.748-.23 1.267-.748 1.267-1.554 0-1.67-1.9-1.785-2.13-1.785h-16.294c-.23 0-2.13.115-2.13 1.785 0 .806.518 1.324 1.267 1.554 2.015.633 1.957.979 1.957 3.109v30.168c0 2.13.058 2.476-1.957 3.11-.749.23-1.267.748-1.267 1.554 0 1.67 1.9 1.784 2.13 1.784h16.293c.23 0 2.13-.115 2.13-1.784 0-.806-.518-1.325-1.266-1.555-2.015-.633-1.957-.979-1.957-3.109zm28.325-3.972c5.355 1.439 8.06 7.426 9.04 12.09.23 1.094.92 2.072 2.13 2.072 1.842 0 1.842-1.784 1.842-2.072v-13.357c0-.288 0-2.073-1.842-2.073-.807 0-1.21.46-1.555 1.21-.345.748-.69 1.093-1.554 1.093-1.497 0-5.93-2.245-8.06-2.303zm9.442 29.937c-1.266 4.26-5.009 7.197-9.442 8.176v3.339c5.988.23 12.954-6.678 13.07-11.4 0-1.036-.634-1.957-1.728-1.957-1.209 0-1.554.864-1.9 1.842zm-12.032 8.176c-2.764-.691-3.685-3.052-3.685-5.47v-27.29c0-2.417.921-4.778 3.685-5.353v-3.34c-11.17.403-18.654 9.845-18.654 23.145 0 11.802 5.988 21.417 18.654 21.647zm30.57-32.529H678l-6.909 25.275c-1.094 4.087-2.648 5.411-3.857 6.045-1.267.633-2.245.575-2.245 1.957 0 1.67 2.072 1.727 3.224 1.727h6.62c1.152 0 2.994.058 2.994-1.554 0-1.152-.806-1.497-1.727-1.9-1.957-.864-2.763-1.842-1.842-5.354l5.412-19.69zm8.81 28.268c.518 2.246.287 2.649-1.21 3.512-.748.403-1.093.691-1.093 1.612 0 1.497 1.67 1.612 2.82 1.612h14.336c1.094 0 3.167.058 3.167-1.497 0-1.036-.634-1.439-1.44-1.784-1.612-.691-1.67-1.785-2.015-3.397l-8.636-36.386h-12.723l-.749 3.109 5.815 25.447h-7.024l-.806 3.34h8.406zm38.113-29.88c0-2.13-.058-2.476 1.957-3.109.749-.23 1.267-.748 1.267-1.554 0-1.67-1.9-1.785-2.13-1.785h-16.294c-.23 0-2.13.115-2.13 1.785 0 .806.518 1.324 1.267 1.554 2.015.633 1.957.979 1.957 3.109v30.168c0 2.13.058 2.476-1.957 3.11-.749.23-1.267.748-1.267 1.554 0 1.67 1.9 1.784 2.13 1.784h15.2zm2.59 36.616h12.148v-12.78c0-1.095-.115-2.189-1.439-2.189-1.209 0-1.9.346-2.188 1.612-1.209 5.355-3.857 9.385-8.52 10.018z" fill="#fff"/></svg>